<?xml version="1.0" standalone="no"?>
<!DOCTYPE svg PUBLIC "-//W3C//DTD SVG 20010904//EN"
 "http://www.w3.org/TR/2001/REC-SVG-20010904/DTD/svg10.dtd">
<svg version="1.0" xmlns="http://www.w3.org/2000/svg"
 width="400.000000pt" height="400.000000pt" viewBox="0 0 400.000000 400.000000"
 preserveAspectRatio="xMidYMid meet">

<g transform="translate(0.000000,400.000000) scale(0.100000,-0.100000)"
fill="#000000" stroke="none">
<path d="M0 2000 l0 -2000 2000 0 2000 0 0 2000 0 2000 -2000 0 -2000 0 0
-2000z m1375 965 c61 -10 97 -32 93 -58 -3 -19 -8 -22 -38 -19 -19 2 -76 4
-127 5 -88 2 -92 1 -130 -29 -51 -40 -73 -87 -73 -152 0 -108 67 -179 178
-189 42 -4 75 -1 108 11 26 9 55 16 65 16 22 0 35 -36 20 -54 -32 -39 -222
-54 -292 -24 -50 22 -106 74 -132 122 -30 58 -30 174 0 231 19 36 58 79 106
115 23 17 123 40 157 35 14 -2 43 -7 65 -10z m1457 -17 c53 -23 112 -82 134
-134 21 -49 18 -160 -6 -212 -24 -52 -71 -98 -130 -125 -64 -30 -189 -30 -246
1 -93 48 -143 128 -144 226 0 78 16 128 58 176 80 94 212 121 334 68z m-1481
-1424 c74 -22 141 -89 163 -163 20 -68 20 -84 1 -149 -19 -62 -61 -113 -124
-150 -44 -26 -52 -27 -186 -27 l-140 0 -3 240 c-1 132 0 245 2 252 8 20 218
17 287 -3z m1497 -8 c7 -34 -25 -46 -120 -46 l-88 0 0 -75 0 -74 98 -3 c94 -3
97 -4 100 -27 5 -34 -12 -41 -110 -41 l-88 0 0 -75 0 -75 93 0 c105 0 141 -14
121 -47 -10 -16 -27 -18 -150 -18 l-139 0 -3 240 c-1 132 0 245 3 253 3 10 37
12 142 10 127 -3 138 -5 141 -22z"/>
<path d="M2669 2901 c-111 -22 -179 -130 -149 -239 39 -147 243 -191 342 -74
120 143 -7 349 -193 313z"/>
<path d="M1130 1286 l0 -186 89 0 c49 0 102 5 118 11 65 24 113 99 113 176 0
60 -24 108 -73 147 -37 29 -44 31 -143 34 l-104 4 0 -186z"/>
</g>
</svg>
